<svg xmlns="http://www.w3.org/2000/svg" xmlns:xlink="http://www.w3.org/1999/xlink" xmlns:s="https://github.com/nturley/netlistsvg" width="731" height="350"><style>svg {
  stroke:#000;
  fill:none;
}
text {
  fill:#000;
  stroke:none;
  font-size:10px;
  font-weight: bold;
  font-family: "Courier New", monospace;
}
line {
    stroke-linecap: round;
}
.nodelabel {
  text-anchor: middle;
}
.inputPortLabel {
  text-anchor: end;
}
.splitjoinBody {
  fill:#000;
}</style><g s:type="not" transform="translate(144,263)" s:width="30" s:height="20" id="cell_$auto$proc_dlatch.cc:238:make_hold$12"><s:alias val="$_NOT_"/><s:alias val="$not"/><s:alias val="$logic_not"/><path d="M0,0 L0,20 L20,10 Z" fill="#eebaff" class="cell_$auto$proc_dlatch.cc:238:make_hold$12"/><circle cx="24" cy="10" r="3" fill="#eebaff" class="cell_$auto$proc_dlatch.cc:238:make_hold$12"/><g s:x="-1" s:y="10" s:pid="A"/><g s:x="27" s:y="10" s:pid="Y"/></g><g s:type="and" transform="translate(209,308)" s:width="30" s:height="25" id="cell_$auto$proc_dlatch.cc:251:make_hold$22"><s:alias val="$and"/><s:alias val="$logic_and"/><s:alias val="$_AND_"/><path d="M0,0 L0,25 L15,25 A15 12.5 0 0 0 15,0 Z" fill="#eebaff" class="cell_$auto$proc_dlatch.cc:251:make_hold$22"/><g s:x="0" s:y="5" s:pid="A"/><g s:x="0" s:y="20" s:pid="B"/><g s:x="30" s:y="12.5" s:pid="Y"/></g><g s:type="not" transform="translate(275,310.5)" s:width="30" s:height="20" id="cell_$auto$proc_dlatch.cc:409:proc_dlatch$26"><s:alias val="$_NOT_"/><s:alias val="$not"/><s:alias val="$logic_not"/><path d="M0,0 L0,20 L20,10 Z" fill="#eebaff" class="cell_$auto$proc_dlatch.cc:409:proc_dlatch$26"/><circle cx="24" cy="10" r="3" fill="#eebaff" class="cell_$auto$proc_dlatch.cc:409:proc_dlatch$26"/><g s:x="-1" s:y="10" s:pid="A"/><g s:x="27" s:y="10" s:pid="Y"/></g><g s:type="generic" transform="translate(354,290)" s:width="30" s:height="40" id="cell_$auto$proc_dlatch.cc:409:proc_dlatch$28"><text x="15" y="-4" class="nodelabel cell_$auto$proc_dlatch.cc:409:proc_dlatch$28" s:attribute="ref">$dlatch</text><rect width="30" height="40" s:generic="body" fill="#ffae46" rx="0" class="cell_$auto$proc_dlatch.cc:409:proc_dlatch$28"/><g transform="translate(0,10)" s:x="0" s:y="10" s:pid="in0" id="port_$auto$proc_dlatch.cc:409:proc_dlatch$28~D"><text x="-3" y="-4" class="inputPortLabel cell_$auto$proc_dlatch.cc:409:proc_dlatch$28">D</text></g><g transform="translate(0,30)" s:x="0" s:y="10" s:pid="in0" id="port_$auto$proc_dlatch.cc:409:proc_dlatch$28~EN"><text x="-3" y="-4" class="inputPortLabel cell_$auto$proc_dlatch.cc:409:proc_dlatch$28">EN</text></g><g transform="translate(30,10)" s:x="30" s:y="10" s:pid="out0" id="port_$auto$proc_dlatch.cc:409:proc_dlatch$28~Q"><text x="5" y="-4" style="fill:#000; stroke:none" class="cell_$auto$proc_dlatch.cc:409:proc_dlatch$28">Q</text></g></g><g s:type="not" transform="translate(624,225.5)" s:width="30" s:height="20" id="cell_$not$/home/edmondium/verilog/flip_flop.v:8$1"><s:alias val="$_NOT_"/><s:alias val="$not"/><s:alias val="$logic_not"/><path d="M0,0 L0,20 L20,10 Z" fill="#eebaff" class="cell_$not$/home/edmondium/verilog/flip_flop.v:8$1"/><circle cx="24" cy="10" r="3" fill="#eebaff" class="cell_$not$/home/edmondium/verilog/flip_flop.v:8$1"/><g s:x="-1" s:y="10" s:pid="A"/><g s:x="27" s:y="10" s:pid="Y"/></g><g s:type="mux" transform="translate(278,202)" s:width="20" s:height="40" id="cell_$procmux$10"><s:alias val="$pmux"/><s:alias val="$mux"/><s:alias val="$_MUX_"/><path d="M0,0 L20,10 L20,30 L0,40 Z" fill="#ffffff" class="cell_$procmux$10"/><text x="5" y="32" class="nodelabel cell_$procmux$10" s:attribute="">1</text><text x="5" y="13" class="nodelabel cell_$procmux$10" s:attribute="">0</text><g s:x="0" s:y="10" s:pid="A"/><g s:x="0" s:y="30" s:pid="B"/><g s:x="10" s:y="35" s:pid="S"/><g s:x="20" s:y="20" s:pid="Y"/></g><g s:type="mux" transform="translate(212.33333333333334,137)" s:width="20" s:height="40" id="cell_$procmux$5"><s:alias val="$pmux"/><s:alias val="$mux"/><s:alias val="$_MUX_"/><path d="M0,0 L20,10 L20,30 L0,40 Z" fill="#ffffff" class="cell_$procmux$5"/><text x="5" y="32" class="nodelabel cell_$procmux$5" s:attribute="">1</text><text x="5" y="13" class="nodelabel cell_$procmux$5" s:attribute="">0</text><g s:x="0" s:y="10" s:pid="A"/><g s:x="0" s:y="30" s:pid="B"/><g s:x="10" s:y="35" s:pid="S"/><g s:x="20" s:y="20" s:pid="Y"/></g><g s:type="eq" transform="translate(145.33333333333334,192)" s:width="25" s:height="25" id="cell_$procmux$6_CMP0"><s:alias val="$eq"/><circle r="12.5" cx="12.5" cy="12.5" fill="#ffc9c3" class="cell_$procmux$6_CMP0"/><line x1="7.5" x2="17.5" y1="10" y2="10" class="cell_$procmux$6_CMP0"/><line x1="7.5" x2="17.5" y1="15" y2="15" class="cell_$procmux$6_CMP0"/><g s:x="2" s:y="5" s:pid="A"/><g s:x="2" s:y="20" s:pid="B"/><g s:x="25" s:y="12.5" s:pid="Y"/></g><g s:type="not" transform="translate(144,318)" s:width="30" s:height="20" id="cell_$procmux$8_CMP0"><s:alias val="$_NOT_"/><s:alias val="$not"/><s:alias val="$logic_not"/><path d="M0,0 L0,20 L20,10 Z" fill="#eebaff" class="cell_$procmux$8_CMP0"/><circle cx="24" cy="10" r="3" fill="#eebaff" class="cell_$procmux$8_CMP0"/><g s:x="-1" s:y="10" s:pid="A"/><g s:x="27" s:y="10" s:pid="Y"/></g><g s:type="outputExt" transform="translate(689,290.5)" s:width="30" s:height="20" id="cell_q"><text x="15" y="-4" class="nodelabel cell_q" s:attribute="ref">q</text><s:alias val="$_outputExt_"/><path d="M30,0 L30,20 L15,20 L0,10 L15,0 Z" fill="#169300" class="cell_q"/><g s:x="0" s:y="10" s:pid="A"/></g><g s:type="outputExt" transform="translate(689,225.5)" s:width="30" s:height="20" id="cell_qbar"><text x="15" y="-4" class="nodelabel cell_qbar" s:attribute="ref">qbar</text><s:alias val="$_outputExt_"/><path d="M30,0 L30,20 L15,20 L0,10 L15,0 Z" fill="#169300" class="cell_qbar"/><g s:x="0" s:y="10" s:pid="A"/></g><g s:type="inputExt" transform="translate(12,22)" s:width="30" s:height="20" id="cell_clk"><text x="15" y="-4" class="nodelabel cell_clk" s:attribute="ref">clk</text><s:alias val="$_inputExt_"/><path d="M0,0 L0,20 L15,20 L30,10 L15,0 Z" fill="#8bcaff" class="cell_clk"/><g s:x="30" s:y="10" s:pid="Y"/></g><g s:type="inputExt" transform="translate(78,263)" s:width="30" s:height="20" id="cell_rst"><text x="15" y="-4" class="nodelabel cell_rst" s:attribute="ref">rst</text><s:alias val="$_inputExt_"/><path d="M0,0 L0,20 L15,20 L30,10 L15,0 Z" fill="#8bcaff" class="cell_rst"/><g s:x="30" s:y="10" s:pid="Y"/></g><g s:type="inputExt" transform="translate(12,137)" s:width="30" s:height="20" id="cell_sr"><text x="15" y="-4" class="nodelabel cell_sr" s:attribute="ref">sr</text><s:alias val="$_inputExt_"/><path d="M0,0 L0,20 L15,20 L30,10 L15,0 Z" fill="#8bcaff" class="cell_sr"/><g s:x="30" s:y="10" s:pid="Y"/></g><g s:type="constant" transform="translate(143,137)" s:width="30" s:height="20" id="cell_0"><text x="15" y="-4" class="nodelabel cell_0" s:attribute="ref">0</text><s:alias val="$_constant_"/><rect width="30" height="20" fill="#745bff" class="cell_0"/><g s:x="31" s:y="10" s:pid="Y"/></g><g s:type="constant" transform="translate(143,72)" s:width="30" s:height="20" id="cell_1"><text x="15" y="-4" class="nodelabel cell_1" s:attribute="ref">1</text><s:alias val="$_constant_"/><rect width="30" height="20" fill="#745bff" class="cell_1"/><g s:x="31" s:y="10" s:pid="Y"/></g><g s:type="constant" transform="translate(12,202)" s:width="30" s:height="20" id="cell_10"><text x="15" y="-4" class="nodelabel cell_10" s:attribute="ref">10</text><s:alias val="$_constant_"/><rect width="30" height="20" fill="#745bff" class="cell_10"/><g s:x="31" s:y="10" s:pid="Y"/></g><line x1="108" x2="143" y1="273" y2="273" class="net_5 width_1" style="stroke-width: 1"/><line x1="108" x2="118" y1="273" y2="273" class="net_5 width_1" style="stroke-width: 1"/><line x1="118" x2="118" y1="273" y2="252" class="net_5 width_1" style="stroke-width: 1"/><line x1="118" x2="288" y1="252" y2="252" class="net_5 width_1" style="stroke-width: 1"/><circle cx="118" cy="273" r="2" style="fill:#000" class="net_5 width_1"/><line x1="288" x2="288" y1="252" y2="237" class="net_5 width_1" style="stroke-width: 1"/><line x1="171" x2="184" y1="273" y2="273" class="net_8 width_1" style="stroke-width: 1"/><line x1="184" x2="184" y1="273" y2="313" class="net_8 width_1" style="stroke-width: 1"/><line x1="184" x2="209" y1="313" y2="313" class="net_8 width_1" style="stroke-width: 1"/><line x1="171" x2="209" y1="328" y2="328" class="net_9 width_1" style="stroke-width: 1"/><line x1="239" x2="274" y1="320.5" y2="320.5" class="net_10 width_1" style="stroke-width: 1"/><line x1="298" x2="315" y1="222" y2="222" class="net_12 width_1" style="stroke-width: 1"/><line x1="315" x2="315" y1="222" y2="300.5" class="net_12 width_1" style="stroke-width: 1"/><line x1="315" x2="354" y1="300.5" y2="300.5" class="net_12 width_1" style="stroke-width: 1"/><line x1="302" x2="353" y1="320.5" y2="320.5" class="net_11 width_1" style="stroke-width: 1"/><line x1="385" x2="598" y1="300.5" y2="300.5" class="net_2 width_1" style="stroke-width: 1"/><line x1="598" x2="598" y1="300.5" y2="235.5" class="net_2 width_1" style="stroke-width: 1"/><circle cx="598" cy="300.5" r="2" style="fill:#000" class="net_2 width_1"/><line x1="598" x2="623" y1="235.5" y2="235.5" class="net_2 width_1" style="stroke-width: 1"/><line x1="385" x2="689" y1="300.5" y2="300.5" class="net_2 width_1" style="stroke-width: 1"/><line x1="232.33333333333334" x2="249" y1="157" y2="157" class="net_13 width_1" style="stroke-width: 1"/><line x1="249" x2="249" y1="157" y2="212" class="net_13 width_1" style="stroke-width: 1"/><line x1="249" x2="278" y1="212" y2="212" class="net_13 width_1" style="stroke-width: 1"/><line x1="174" x2="184" y1="147" y2="147" class="net_15 width_1" style="stroke-width: 1"/><line x1="184" x2="184" y1="147" y2="232" class="net_15 width_1" style="stroke-width: 1"/><circle cx="184" cy="147" r="2" style="fill:#000" class="net_15 width_1"/><line x1="184" x2="278" y1="232" y2="232" class="net_15 width_1" style="stroke-width: 1"/><line x1="174" x2="212.33333333333334" y1="147" y2="147" class="net_15 width_1" style="stroke-width: 1"/><line x1="174" x2="194" y1="82" y2="82" class="net_17 width_1" style="stroke-width: 1"/><line x1="194" x2="194" y1="82" y2="167" class="net_17 width_1" style="stroke-width: 1"/><line x1="194" x2="212.33333333333334" y1="167" y2="167" class="net_17 width_1" style="stroke-width: 1"/><line x1="170.33333333333334" x2="222.33333333333334" y1="204.5" y2="204.5" class="net_14 width_1" style="stroke-width: 1"/><line x1="222.33333333333334" x2="222.33333333333334" y1="204.5" y2="172" class="net_14 width_1" style="stroke-width: 1"/><line x1="42" x2="118" y1="147" y2="147" class="net_6,7 width_2" style="stroke-width: 2"/><line x1="118" x2="118" y1="147" y2="197" class="net_6,7 width_2" style="stroke-width: 2"/><line x1="118" x2="147.33333333333334" y1="197" y2="197" class="net_6,7 width_2" style="stroke-width: 2"/><line x1="42" x2="53" y1="147" y2="147" class="net_6,7 width_2" style="stroke-width: 2"/><line x1="53" x2="53" y1="147" y2="328" class="net_6,7 width_2" style="stroke-width: 2"/><circle cx="53" cy="147" r="3" style="fill:#000" class="net_6,7 width_2"/><line x1="53" x2="143" y1="328" y2="328" class="net_6,7 width_2" style="stroke-width: 2"/><line x1="43" x2="147.33333333333334" y1="212" y2="212" class="net_18,19 width_2" style="stroke-width: 2"/><line x1="651" x2="689" y1="235.5" y2="235.5" class="net_3 width_1" style="stroke-width: 1"/><rect x="92" y="323" width="16" height="9" class="net_6,7 width_2 busLabel_2" style="fill: white; stroke: none"/><text x="91" y="331" class="net_6,7 width_2 busLabel_2">/2/</text><rect x="92" y="323" width="16" height="9" class="net_6,7 width_2 busLabel_2" style="fill: white; stroke: none"/><text x="91" y="331" class="net_6,7 width_2 busLabel_2">/2/</text><rect x="92" y="207" width="16" height="9" class="net_18,19 width_2 busLabel_2" style="fill: white; stroke: none"/><text x="91" y="215" class="net_18,19 width_2 busLabel_2">/2/</text></svg>